<svg xmlns="http://www.w3.org/2000/svg" version="1.1" xmlns:xlink="http://www.w3.org/1999/xlink" width="42" height="63"><svg xmlns="http://www.w3.org/2000/svg" version="1.1" xmlns:xlink="http://www.w3.org/1999/xlink" width="42" height="63"><svg width="42" height="63" viewBox="0 0 42 63" fill="none" xmlns="http://www.w3.org/2000/svg">
<path d="M19.5632 16.674C19.3561 16.0028 19.0702 15.4021 18.7056 14.8718C18.3493 14.3332 17.9184 13.8733 17.413 13.4922C16.9158 13.111 16.3441 12.8252 15.6978 12.6346C15.0515 12.4357 14.3472 12.3363 13.5849 12.3363C12.2177 12.3363 10.9996 12.6802 9.93075 13.3679C8.86186 14.0556 8.02083 15.0665 7.40767 16.4006C6.80279 17.7263 6.50036 19.3421 6.50036 21.2479C6.50036 23.1702 6.80279 24.7984 7.40767 26.1325C8.01255 27.4665 8.85358 28.4815 9.93075 29.1776C11.0079 29.8653 12.2591 30.2092 13.6843 30.2092C14.9769 30.2092 16.0955 29.9606 17.0401 29.4634C17.993 28.9663 18.7263 28.262 19.2401 27.3505C19.7538 26.4308 20.0107 25.3536 20.0107 24.119L21.0547 24.2805H14.1442V20.6761H24.4727V23.7337C24.4727 25.9129 24.0086 27.7979 23.0806 29.3888C22.1526 30.9798 20.8765 32.2061 19.2525 33.0678C17.6284 33.9213 15.7641 34.348 13.6594 34.348C11.3145 34.348 9.25545 33.8219 7.48224 32.7695C5.71733 31.7089 4.33771 30.205 3.34339 28.2578C2.35736 26.3023 1.86435 23.9822 1.86435 21.2976C1.86435 19.2427 2.15436 17.4073 2.73438 15.7915C3.32268 14.1758 4.14299 12.8045 5.19531 11.6776C6.24763 10.5424 7.48224 9.68063 8.89915 9.09233C10.3161 8.49574 11.8572 8.19744 13.5227 8.19744C14.9313 8.19744 16.2447 8.40459 17.4627 8.81889C18.6808 9.2249 19.7621 9.80492 20.7067 10.5589C21.6596 11.313 22.4426 12.2079 23.0558 13.2436C23.6689 14.2794 24.0708 15.4228 24.2614 16.674H19.5632Z" fill="#100A71"></path>
<path d="M22.5107 34V8.54545H39.0661V12.4109H27.1218V19.3214H38.2085V23.1868H27.1218V30.1346H39.1655V34H22.5107Z" fill="#100A71"></path>
<path d="M35.2557 42.2727C35.2557 45.0154 34.742 47.3645 33.7145 49.32C32.6953 51.2672 31.3033 52.7586 29.5384 53.7944C27.7817 54.8301 25.7889 55.348 23.56 55.348C21.3311 55.348 19.3342 54.8301 17.5692 53.7944C15.8126 52.7504 14.4206 51.2547 13.3931 49.3075C12.3739 47.352 11.8643 45.0071 11.8643 42.2727C11.8643 39.5301 12.3739 37.1851 13.3931 35.2379C14.4206 33.2824 15.8126 31.7868 17.5692 30.7511C19.3342 29.7153 21.3311 29.1974 23.56 29.1974C25.7889 29.1974 27.7817 29.7153 29.5384 30.7511C31.3033 31.7868 32.6953 33.2824 33.7145 35.2379C34.742 37.1851 35.2557 39.5301 35.2557 42.2727ZM30.6197 42.2727C30.6197 40.3421 30.3172 38.7139 29.7124 37.3881C29.1158 36.0541 28.2872 35.0473 27.2266 34.3679C26.166 33.6802 24.9438 33.3363 23.56 33.3363C22.1763 33.3363 20.9541 33.6802 19.8935 34.3679C18.8329 35.0473 18.0001 36.0541 17.3952 37.3881C16.7987 38.7139 16.5004 40.3421 16.5004 42.2727C16.5004 44.2034 16.7987 45.8357 17.3952 47.1697C18.0001 48.4955 18.8329 49.5022 19.8935 50.19C20.9541 50.8694 22.1763 51.2092 23.56 51.2092C24.9438 51.2092 26.166 50.8694 27.2266 50.19C28.2872 49.5022 29.1158 48.4955 29.7124 47.1697C30.3172 45.8357 30.6197 44.2034 30.6197 42.2727Z" fill="#100A71"></path>
</svg></svg><style>@media (prefers-color-scheme: light) { :root { filter: none; } }
@media (prefers-color-scheme: dark) { :root { filter: contrast(0.47619047619047616) brightness(3.5); } }
</style></svg>